<?xml version="1.0" standalone="no"?>
<!DOCTYPE svg PUBLIC "-//W3C//DTD SVG 20010904//EN"
 "http://www.w3.org/TR/2001/REC-SVG-20010904/DTD/svg10.dtd">
<svg version="1.0" xmlns="http://www.w3.org/2000/svg"
 width="1024.000000pt" height="1024.000000pt" viewBox="0 0 1024.000000 1024.000000"
 preserveAspectRatio="xMidYMid meet">
<metadata>
Created by potrace 1.14, written by Peter Selinger 2001-2017
</metadata>
<g transform="translate(0.000000,1024.000000) scale(0.100000,-0.100000)"
fill="#000000" stroke="none">
<path d="M8860 9710 c-100 -17 -196 -66 -306 -155 -92 -74 -422 -387 -423
-401 -1 -6 34 -45 78 -85 43 -41 164 -155 267 -254 104 -99 241 -229 304 -290
185 -176 272 -259 295 -280 12 -11 36 -33 52 -48 l31 -28 93 83 c151 133 308
289 348 343 73 98 131 270 131 383 -1 113 -44 238 -122 349 -142 202 -337 353
-497 383 -61 11 -184 11 -251 0z"/>
<path d="M4220 9039 c-1627 -4 -2270 -8 -2308 -17 -329 -70 -571 -188 -809
-394 -270 -234 -467 -571 -536 -918 -38 -190 -38 -212 -34 -3020 4 -2867 2
-2769 42 -2935 57 -237 187 -500 333 -675 57 -67 171 -183 232 -233 52 -43
215 -157 225 -157 4 0 20 -10 37 -21 89 -64 338 -148 563 -191 106 -20 5603
-19 5720 1 287 49 533 151 750 311 88 64 279 254 342 338 163 219 263 451 320
737 16 84 18 234 20 2343 3 1572 0 2252 -7 2252 -6 0 -34 -24 -63 -53 -91 -93
-294 -303 -562 -582 -143 -148 -294 -304 -335 -346 -41 -43 -133 -137 -205
-211 -348 -357 -514 -528 -795 -818 -167 -173 -386 -398 -486 -500 -99 -102
-246 -252 -325 -335 -79 -82 -243 -251 -364 -374 -281 -286 -266 -271 -260
-282 4 -5 246 -9 608 -9 l602 0 195 199 c107 109 326 333 485 497 160 163 313
320 341 348 29 28 98 101 155 161 56 61 109 114 116 118 11 7 13 -176 10
-1135 -3 -1234 0 -1156 -55 -1293 -50 -125 -165 -275 -267 -345 -68 -47 -172
-98 -248 -122 l-72 -23 -2760 0 -2760 0 -75 24 c-241 76 -436 254 -518 473
-55 148 -52 -40 -52 2909 0 2704 0 2720 20 2797 71 268 255 466 530 568 l75
28 1853 6 c1296 3 1855 8 1860 16 4 6 73 87 154 180 136 157 467 541 525 609
14 17 33 38 41 48 9 10 12 21 6 25 -5 4 -1024 4 -2264 1z"/>
<path d="M6526 7540 c-768 -770 -1396 -1406 -1396 -1412 0 -7 136 -150 303
-318 166 -168 390 -394 497 -503 107 -108 197 -196 200 -195 15 8 2830 2836
2830 2844 0 5 -64 70 -142 143 -79 74 -200 189 -269 255 -69 67 -206 197 -305
291 -98 93 -209 198 -245 232 -36 35 -68 63 -71 63 -3 0 -634 -630 -1402
-1400z"/>
<path d="M4892 5820 c-6 -14 -20 -50 -31 -80 -23 -58 -31 -79 -49 -120 -6 -14
-72 -178 -147 -365 -75 -187 -140 -349 -145 -360 -5 -11 -50 -123 -100 -250
-51 -126 -98 -243 -105 -260 -47 -110 -57 -136 -52 -142 6 -6 71 19 220 86 27
12 83 35 125 52 42 17 91 37 107 44 17 7 118 50 225 95 107 45 209 88 225 95
17 7 134 57 260 109 127 53 239 101 250 106 11 5 50 22 88 39 37 16 67 32 67
34 0 3 -209 216 -464 474 -444 448 -465 467 -474 443z"/>
<path d="M3401 4333 c-11 -38 -36 -126 -55 -198 -20 -71 -40 -143 -44 -160
-11 -34 -21 -71 -57 -205 -14 -52 -34 -124 -45 -160 -10 -36 -31 -110 -45
-165 -15 -55 -31 -111 -35 -125 -4 -14 -13 -45 -20 -70 -7 -25 -19 -65 -27
-90 -8 -25 -17 -76 -20 -115 -4 -62 -2 -74 19 -105 30 -45 91 -66 175 -62 l63
4 20 69 c11 37 29 101 40 141 10 40 30 111 43 158 14 47 39 139 57 205 18 66
42 152 52 190 26 93 68 243 78 280 5 17 17 64 29 105 11 41 27 98 35 125 23
74 21 150 -5 187 -30 42 -76 58 -163 58 l-75 0 -20 -67z"/>
<path d="M2795 4023 c-16 -9 -84 -47 -150 -86 -387 -226 -398 -233 -411 -303
-11 -59 1 -187 20 -220 13 -21 72 -61 208 -139 287 -166 325 -185 381 -185
103 0 157 70 145 190 -3 33 -8 37 -103 86 -231 118 -329 172 -332 181 -2 5 22
22 54 37 86 39 278 141 313 166 41 29 60 70 60 128 0 63 -30 110 -90 139 -54
26 -57 27 -95 6z"/>
<path d="M3808 4023 c-45 -28 -69 -84 -66 -149 3 -52 6 -59 33 -74 17 -9 113
-60 215 -113 102 -53 185 -100 185 -106 0 -5 -75 -48 -167 -95 -187 -95 -224
-119 -244 -158 -19 -38 -18 -117 4 -156 16 -30 33 -44 94 -74 36 -17 14 -27
395 193 173 101 204 122 221 155 42 80 33 231 -17 285 -27 29 -222 145 -456
271 -79 43 -150 50 -197 21z"/>
<path d="M2169 2484 c-47 -50 -20 -146 46 -158 17 -3 138 -6 270 -5 271 1 296
6 315 64 13 39 6 75 -21 104 -19 20 -28 21 -303 21 l-283 0 -24 -26z"/>
<path d="M3081 2488 c-12 -12 -24 -30 -27 -41 -9 -30 4 -82 27 -103 20 -18 54
-19 870 -22 l848 -3 31 28 c44 40 50 89 15 131 l-27 32 -858 0 -859 0 -20 -22z"/>
<path d="M2194 2040 c-11 -4 -29 -25 -38 -44 -23 -48 -8 -99 37 -127 30 -18
64 -19 853 -19 565 0 832 4 854 11 63 22 80 111 31 160 l-29 29 -844 -1 c-464
0 -852 -4 -864 -9z"/>
<path d="M4251 2036 c-26 -15 -50 -51 -51 -79 0 -33 31 -78 63 -92 23 -10 98
-13 277 -14 228 -1 248 1 278 19 61 37 67 121 13 160 -28 19 -43 20 -293 20
-199 -1 -269 -4 -287 -14z"/>
</g>
</svg>
